<svg xmlns="http://www.w3.org/2000/svg">
    <symbol id='diagram'>
        <path d="M25.6 29.4725L0 47.2908V80C0 84.4183 3.58171 88 7.99999 88H312C316.418 88 320 84.4183 320 80V15.4197C318.834 14.9345 317.137 14.7724 316.416 14.7344C310.805 14.4387 307.586 17.2597 303.104 19.8743L303.048 19.9068C301.724 20.6803 298.409 22.6156 292.352 22.6156C286.208 22.6156 281.941 20.7881 280.576 19.8743L260.096 5.48257C257.365 3.65504 251.392 0 244.736 0C238.08 0 232.789 3.65504 230.4 5.48257L135.68 66.8225C134.144 67.9647 129.434 70.2491 122.88 70.2491C116.326 70.2491 111.616 67.9647 110.08 66.8225L55.296 27.7592C53.4187 26.3886 47.9232 23.6473 40.96 23.6473C33.9968 23.6473 27.8187 27.5308 25.6 29.4725Z" fill="url(#paint0_linear_34_6965)" fill-opacity="0.6"/>
        <path d="M25.6 29.4725L0 47.2908V80C0 84.4183 3.58171 88 7.99999 88H312C316.418 88 320 84.4183 320 80V15.4197C318.834 14.9345 317.137 14.7724 316.416 14.7344C310.805 14.4387 307.586 17.2597 303.104 19.8743L303.048 19.9068C301.724 20.6803 298.409 22.6156 292.352 22.6156C286.208 22.6156 281.941 20.7881 280.576 19.8743L260.096 5.48257C257.365 3.65504 251.392 0 244.736 0C238.08 0 232.789 3.65504 230.4 5.48257L135.68 66.8225C134.144 67.9647 129.434 70.2491 122.88 70.2491C116.326 70.2491 111.616 67.9647 110.08 66.8225L55.296 27.7592C53.4187 26.3886 47.9232 23.6473 40.96 23.6473C33.9968 23.6473 27.8187 27.5308 25.6 29.4725Z" fill="#390096" fill-opacity="0.2"/>
            <defs>
                <linearGradient id="paint0_linear_34_6965" x1="160" y1="12.95" x2="160" y2="102.2" gradientUnits="userSpaceOnUse">
                    <stop stop-color="white"/>
                    <stop offset="0.374892" stop-color="white" stop-opacity="0.536458"/>
                    <stop offset="0.6091" stop-color="white" stop-opacity="0.269957"/>
                    <stop offset="0.766012" stop-color="white" stop-opacity="0.151176"/>
                    <stop offset="1" stop-color="white" stop-opacity="0"/>
                </linearGradient>
            </defs>
    </symbol>
    <symbol id='line' fill="none">
        <path d="M0 48.1232L25.6 30.368C27.8187 28.4332 33.9968 24.5634 40.96 24.5634C47.9232 24.5634 53.4187 27.295 55.296 28.6608L110.08 67.5855C111.616 68.7237 116.326 71 122.88 71C129.434 71 134.144 68.7237 135.68 67.5855L230.4 6.46313C232.789 4.64208 238.08 1 244.736 1C251.392 1 257.365 4.64208 260.096 6.46313L280.576 20.8038C281.941 21.7144 286.208 23.5354 292.352 23.5354C298.496 23.5354 301.818 21.5514 303.104 20.8038C307.586 18.1985 310.805 15.3875 316.416 15.6821C317.137 15.72 318.834 15.8815 320 16.365" stroke="#FF868D"/> 
    </symbol>
    <symbol id='dot' width="6" height="6" viewBox="0 0 6 6" fill="none">
        <circle cx="3" cy="3" r="2.65" fill="#563EAF" stroke="#FF868D" stroke-width="0.7"/>
    </symbol>
    <symbol id='diagramTab'>  
        <path d="M26.88 29.4724L0 47.2907V80C0 84.4183 3.58173 88 8.00001 88H328C332.418 88 336 84.4183 336 80V15.4195C334.776 14.9343 332.993 14.7722 332.237 14.7342C326.345 14.4385 322.966 17.2595 318.259 19.8741L318.201 19.9066C316.81 20.6801 313.33 22.6154 306.97 22.6154C300.518 22.6154 296.038 20.7879 294.605 19.8741L273.101 5.48234C270.234 3.65481 263.962 -0.000244141 256.973 -0.000244141C249.984 -0.000244141 244.429 3.65481 241.92 5.48234L142.464 66.8224C140.851 67.9646 135.905 70.249 129.024 70.249C122.143 70.249 117.197 67.9646 115.584 66.8224L58.0608 27.759C56.0896 26.3884 50.3194 23.6471 43.008 23.6471C35.6966 23.6471 29.2096 27.5306 26.88 29.4724Z" fill="url(#paint0_linear_32_4883)" fill-opacity="0.6" />
        <path d="M26.88 29.4724L0 47.2907V80C0 84.4183 3.58173 88 8.00001 88H328C332.418 88 336 84.4183 336 80V15.4195C334.776 14.9343 332.993 14.7722 332.237 14.7342C326.345 14.4385 322.966 17.2595 318.259 19.8741L318.201 19.9066C316.81 20.6801 313.33 22.6154 306.97 22.6154C300.518 22.6154 296.038 20.7879 294.605 19.8741L273.101 5.48234C270.234 3.65481 263.962 -0.000244141 256.973 -0.000244141C249.984 -0.000244141 244.429 3.65481 241.92 5.48234L142.464 66.8224C140.851 67.9646 135.905 70.249 129.024 70.249C122.143 70.249 117.197 67.9646 115.584 66.8224L58.0608 27.759C56.0896 26.3884 50.3194 23.6471 43.008 23.6471C35.6966 23.6471 29.2096 27.5306 26.88 29.4724Z" fill="#390096" fill-opacity="0.2" />
        <defs>
        <linearGradient id="paint0_linear_32_4883" x1="168" y1="12.9498" x2="168" y2="102.2" gradientUnits="userSpaceOnUse">
        <stop stop-color="white" />
        <stop offset="0.374892" stop-color="white" stop-opacity="0.536458" />
        <stop offset="0.6091" stop-color="white" stop-opacity="0.269957" />
        <stop offset="0.766012" stop-color="white" stop-opacity="0.151176" />
        <stop offset="1" stop-color="white" stop-opacity="0" />
        </linearGradient>
        </defs> 
    </symbol>
    <symbol id='diagramDesktop'>
        <path d="M38.4 42.1037L0 67.5585V167H480V22.0282C478.251 21.335 475.705 21.1035 474.624 21.0492C466.207 20.6267 461.379 24.6567 454.656 28.3919L454.573 28.4384C452.585 29.5434 447.614 32.3081 438.528 32.3081C429.312 32.3081 422.912 29.6973 420.864 28.3919L390.144 7.83226C386.048 5.22151 377.088 0 367.104 0C357.12 0 349.184 5.22151 345.6 7.83226L203.52 95.461C201.216 97.0927 194.15 100.356 184.32 100.356C174.49 100.356 167.424 97.0927 165.12 95.461L82.944 39.6561C80.128 37.6981 71.8848 33.7819 61.44 33.7819C50.9952 33.7819 41.728 39.3298 38.4 42.1037Z" fill="url(#paint0_linear_15_252)" fill-opacity="0.6" />
        <path d="M38.4 42.1037L0 67.5585V167H480V22.0282C478.251 21.335 475.705 21.1035 474.624 21.0492C466.207 20.6267 461.379 24.6567 454.656 28.3919L454.573 28.4384C452.585 29.5434 447.614 32.3081 438.528 32.3081C429.312 32.3081 422.912 29.6973 420.864 28.3919L390.144 7.83226C386.048 5.22151 377.088 0 367.104 0C357.12 0 349.184 5.22151 345.6 7.83226L203.52 95.461C201.216 97.0927 194.15 100.356 184.32 100.356C174.49 100.356 167.424 97.0927 165.12 95.461L82.944 39.6561C80.128 37.6981 71.8848 33.7819 61.44 33.7819C50.9952 33.7819 41.728 39.3298 38.4 42.1037Z" fill="#390096" fill-opacity="0.2" />
        <defs>
            <linearGradient id="paint0_linear_15_252" x1="240" y1="18.5" x2="240" y2="146" gradientUnits="userSpaceOnUse">
            <stop stop-color="white" />
            <stop offset="0.374892" stop-color="white" stop-opacity="0.536458" />
            <stop offset="0.6091" stop-color="white" stop-opacity="0.269957" />
            <stop offset="0.766012" stop-color="white" stop-opacity="0.151176" />
            <stop offset="1" stop-color="white" stop-opacity="0" />
            </linearGradient>
        </defs>
    </symbol>
    <symbol id="mg-logo" viewBox="0 0 27 26" xmlns="http://www.w3.org/2000/svg">
  <g clip-path="url(#clip0_34_6804)">
    <path fill-rule="evenodd" clip-rule="evenodd" d="M18.2328 3.50029C16.4298 3.04956 14.6269 2.1481 13.2747 0.795898C11.9225 2.1481 10.1196 3.04956 8.31665 3.50029C8.76738 7.55689 10.1196 10.2613 13.2747 12.5149C16.4298 10.2613 18.2328 7.55689 18.2328 3.50029Z" fill="#FFC727" />
    <path fill-rule="evenodd" clip-rule="evenodd" d="M16.4296 20.2824L3.80908 5.4082V12.6199L13.7252 23.8882L16.4296 20.2824Z" fill="#FBFBFB" />
    <path fill-rule="evenodd" clip-rule="evenodd" d="M17.782 18.9306L23.1908 12.6204V5.85938L14.6268 15.7755L17.782 18.9306Z" fill="#FBFBFB" />
    <path fill-rule="evenodd" clip-rule="evenodd" d="M18.2327 21.1842V25.2408L23.1907 19.3813V15.3247L18.2327 21.1842Z" fill="#FBFBFB" />
    <path fill-rule="evenodd" clip-rule="evenodd" d="M8.76714 21.1842L3.80908 15.3247V19.3813L8.76714 25.2408V21.1842Z" fill="#FBFBFB" />
  </g>
  <defs>
    <clipPath id="clip0_34_6804">
      <rect width="25.4605" height="25.4605" fill="white" transform="translate(0.769775)" />
    </clipPath>
  </defs>
</symbol>
<symbol id='user' xmlns="http://www.w3.org/2000/svg" viewBox="0 0 24 24" >
  <path d="M12 12c2.7 0 5-2.3 5-5s-2.3-5-5-5-5 2.3-5 5 2.3 5 5 5zm0 2c-3.3 0-10 1.7-10 5v3h20v-3c0-3.3-6.7-5-10-5z"/>
</symbol>
<symbol id='lock' xmlns="http://www.w3.org/2000/svg" viewBox="0 0 24 24" >
<path d="M14 7H13V5C13 2.24 10.76 0 8 0C5.24 0 3 2.24 3 5V7H2C0.9 7 0 7.9 0 9V19C0 20.1 0.9 21 2 21H14C15.1 21 16 20.1 16 19V9C16 7.9 15.1 7 14 7ZM8 16C6.9 16 6 15.1 6 14C6 12.9 6.9 12 8 12C9.1 12 10 12.9 10 14C10 15.1 9.1 16 8 16ZM11.1 7H4.9V5C4.9 3.29 6.29 1.9 8 1.9C9.71 1.9 11.1 3.29 11.1 5V7Z" /></symbol>
<symbol id='eye-open' xmlns="http://www.w3.org/2000/svg" viewBox="0 0 24 24" >
  <path d="M12 5c-7 0-11 7-11 7s4 7 11 7 11-7 11-7-4-7-11-7zm0 12c-2.8 0-5-2.2-5-5s2.2-5 5-5 5 2.2 5 5-2.2 5-5 5zm0-8a3 3 0 100 6 3 3 0 000-6z"/>
</symbol>
<symbol id='eye-closed' xmlns="http://www.w3.org/2000/svg" viewBox="0 0 24 24" >
  <path d="M2 5.3L5.2 8.5C3.8 9.7 2.8 11.2 2 12c2 2.5 6 7 10 7 1.7 0 3.3-.5 4.7-1.3l2.7 2.7 1.3-1.3L3.3 4 2 5.3zM12 17c-2.8 0-5-2.2-5-5 0-.9.3-1.7.7-2.4l6.7 6.7c-.7.4-1.5.7-2.4.7zm5-5c0 .9-.3 1.7-.7 2.4l1.5 1.5c1-.9 2-2.2 2.7-3.4-1.4-2-3.5-4.5-7.5-5-.3 0-.5 0-.7.1l1.5 1.5c.5.4.9 1 1.2 1.5.4.7.7 1.5.7 2.4z"/>
</symbol>
<symbol id='email' xmlns="http://www.w3.org/2000/svg" viewBox="0 0 24 24" >
<path d="M18 0H2C0.9 0 0.00999999 0.9 0.00999999 2L0 14C0 15.1 0.9 16 2 16H18C19.1 16 20 15.1 20 14V2C20 0.9 19.1 0 18 0ZM18 4L10 9L2 4V2L10 7L18 2V4Z"/></symbol>
</svg>
