<svg width="336" height="88" viewBox="0 0 336 88" fill="none" xmlns="http://www.w3.org/2000/svg">
  <path d="M26.88 29.4724L0 47.2907V80C0 84.4183 3.58173 88 8.00001 88H328C332.418 88 336 84.4183 336 80V15.4195C334.776 14.9343 332.993 14.7722 332.237 14.7342C326.345 14.4385 322.966 17.2595 318.259 19.8741L318.201 19.9066C316.81 20.6801 313.33 22.6154 306.97 22.6154C300.518 22.6154 296.038 20.7879 294.605 19.8741L273.101 5.48234C270.234 3.65481 263.962 -0.000244141 256.973 -0.000244141C249.984 -0.000244141 244.429 3.65481 241.92 5.48234L142.464 66.8224C140.851 67.9646 135.905 70.249 129.024 70.249C122.143 70.249 117.197 67.9646 115.584 66.8224L58.0608 27.759C56.0896 26.3884 50.3194 23.6471 43.008 23.6471C35.6966 23.6471 29.2096 27.5306 26.88 29.4724Z" fill="url(#paint0_linear_32_4883)" fill-opacity="0.6" />
  <path d="M26.88 29.4724L0 47.2907V80C0 84.4183 3.58173 88 8.00001 88H328C332.418 88 336 84.4183 336 80V15.4195C334.776 14.9343 332.993 14.7722 332.237 14.7342C326.345 14.4385 322.966 17.2595 318.259 19.8741L318.201 19.9066C316.81 20.6801 313.33 22.6154 306.97 22.6154C300.518 22.6154 296.038 20.7879 294.605 19.8741L273.101 5.48234C270.234 3.65481 263.962 -0.000244141 256.973 -0.000244141C249.984 -0.000244141 244.429 3.65481 241.92 5.48234L142.464 66.8224C140.851 67.9646 135.905 70.249 129.024 70.249C122.143 70.249 117.197 67.9646 115.584 66.8224L58.0608 27.759C56.0896 26.3884 50.3194 23.6471 43.008 23.6471C35.6966 23.6471 29.2096 27.5306 26.88 29.4724Z" fill="#390096" fill-opacity="0.2" />
  <defs>
    <linearGradient id="paint0_linear_32_4883" x1="168" y1="12.9498" x2="168" y2="102.2" gradientUnits="userSpaceOnUse">
      <stop stop-color="white" />
      <stop offset="0.374892" stop-color="white" stop-opacity="0.536458" />
      <stop offset="0.6091" stop-color="white" stop-opacity="0.269957" />
      <stop offset="0.766012" stop-color="white" stop-opacity="0.151176" />
      <stop offset="1" stop-color="white" stop-opacity="0" />
    </linearGradient>
  </defs>
</svg>