<svg width="338" height="72" viewBox="0 0 338 72" fill="none" xmlns="http://www.w3.org/2000/svg">
  <path d="M1 48.291L27.88 30.4726C30.2096 28.5309 36.6966 24.6474 44.008 24.6474C51.3194 24.6474 57.0896 27.3886 59.0608 28.7593L116.584 67.8227C118.197 68.9649 123.143 71.2493 130.024 71.2493C136.905 71.2493 141.851 68.9649 143.464 67.8227L242.92 6.48258C245.429 4.65505 250.984 1 257.973 1C264.962 1 271.234 4.65505 274.101 6.48258L295.605 20.8744C297.038 21.7881 301.518 23.6156 307.97 23.6156C314.421 23.6156 317.909 21.6246 319.259 20.8744C323.966 18.2597 327.345 15.4387 333.237 15.7344C333.993 15.7724 335.776 15.9345 337 16.4198" stroke="#FF868D" />
</svg>